<?xml version="1.0" encoding="UTF-8"?>
<svg width="30px" height="30px" viewBox="0 0 30 30" version="1.1" xmlns="http://www.w3.org/2000/svg" xmlns:xlink="http://www.w3.org/1999/xlink">
    <!-- Generator: Sketch 52.5 (67469) - http://www.bohemiancoding.com/sketch -->
    <title>Artboard@2x</title>
    <desc>Created with Sketch.</desc>
    <g id="Artboard" stroke="none" stroke-width="1" fill="none" fill-rule="evenodd">
        <g id="Group-34" fill="#FFFFFF">
            <path d="M18.4344658,1.63632068 C18.5997504,1.1293554 19.1487745,0.850827428 19.6609155,1.01475274 C21.1391699,1.48741403 22.528836,2.18663529 23.7912208,3.09313119 C24.2267517,3.40587783 24.3237853,4.0090991 24.0079521,4.44037372 C23.8174181,4.70055503 23.5201127,4.83870968 23.2185846,4.83870968 C23.0202948,4.83870968 22.8202815,4.77897635 22.6474996,4.65498703 C21.5513473,3.86787245 20.3450627,3.26081118 19.0621682,2.85069922 C18.5502857,2.6870299 18.2691812,2.14337129 18.4344658,1.63632068 Z" id="Path"></path>
            <g id="Group" transform="translate(7.000000, 10.000000)">
                <path d="M11.3870968,1.36442783 C11.3870968,1.8521361 11.1593516,2.09599023 10.7039488,2.09599023 L10.1460519,2.09599023 L10.1460519,6.93635036 L10.7039488,6.93635036 C11.1593516,6.93635036 11.3870968,7.18226755 11.3870968,7.67368934 C11.3870968,8.14943183 11.1593516,8.38709677 10.7039488,8.38709677 L8.22203404,8.38709677 C7.751314,8.38709677 7.51612903,8.14538823 7.51612903,7.66172357 C7.51612903,7.17814143 7.751314,6.93635036 8.22203404,6.93635036 L8.8025129,6.93635036 L8.8025129,2.09599023 L8.22203404,2.09599023 C7.751314,2.09599023 7.51612903,1.84817501 7.51612903,1.35229702 C7.51612903,0.881010736 7.751314,0.64516129 8.22203404,0.64516129 L10.7039488,0.64516129 C11.1593516,0.64516129 11.3870968,0.884971819 11.3870968,1.36442783 Z" id="Path"></path>
                <path d="M5.5036261,8.13162099 C5.09467204,8.30188563 4.64698152,8.38709677 4.16032073,8.38709677 C3.68714365,8.38709677 3.24436339,8.28627804 2.83221376,8.08479821 C2.41990825,7.88316074 2.06177143,7.60813605 1.75756946,7.2592512 C1.45344544,6.91044517 1.21346649,6.50535721 1.03771055,6.04406617 C0.861876667,5.58285394 0.774193548,5.08853471 0.774193548,4.56134494 C0.774193548,4.04203779 0.861876667,3.54779738 1.03771055,3.07870254 C1.21346649,2.60976535 1.45344544,2.19703125 1.75756946,1.8403426 C2.06177143,1.48373277 2.41811562,1.20082547 2.82714763,0.991463021 C3.23602375,0.782258229 3.67708932,0.677419355 4.15018846,0.677419355 C4.6165847,0.677419355 5.04899887,0.749308869 5.44797655,0.892851418 C5.84656452,1.03663045 6.20828661,1.28304121 6.53275312,1.63239903 C6.58668798,1.69459292 6.63407583,1.77412857 6.67460492,1.87108483 C6.71521194,1.96827756 6.73547649,2.06326315 6.73547649,2.15651457 C6.73547649,2.35066356 6.67296817,2.51367618 6.54787358,2.64555245 C6.422779,2.77774403 6.28256395,2.84356392 6.1271505,2.84356392 C5.93097413,2.84356392 5.77563862,2.76481653 5.66083219,2.60716408 C5.47143665,2.40229473 5.23831647,2.26040753 4.96123782,2.18158131 C4.68400328,2.10283392 4.41378339,2.06326315 4.15018846,2.06326315 C3.84606443,2.06326315 3.56220495,2.13136901 3.29853207,2.26710776 C3.03501507,2.40300417 2.80680514,2.5855657 2.61429198,2.81447705 C2.42162295,3.04362487 2.26956093,3.30942689 2.15802801,3.61219841 C2.04649508,3.91504875 1.99076759,4.22948655 1.99076759,4.55559063 C1.99076759,4.8973023 2.04805389,5.21749441 2.16309414,5.51632461 C2.27797851,5.81531247 2.43339197,6.07536018 2.62949039,6.29662538 C2.82543293,6.51789058 3.05348698,6.69075649 3.31380842,6.81482896 C3.57389603,6.93913791 3.85268938,7.00125297 4.15018846,7.00125297 C4.6165847,7.00125297 5.03044902,6.8867973 5.39209317,6.6577283 C5.75365938,6.42873813 6.00883674,6.08899711 6.15754731,5.63858408 L4.02852326,5.63858408 C3.60273404,5.63858408 3.38980045,5.41156457 3.38980045,4.95721022 C3.38980045,4.48764242 3.60273404,4.25274028 4.02852326,4.25274028 L7.19166252,4.25274028 C7.27942358,4.25274028 7.35541562,4.28970978 7.41979451,4.36317582 C7.48393959,4.43672068 7.51612903,4.51988235 7.51612903,4.61273964 C7.51612903,5.20906 7.43327823,5.74129465 7.2677325,6.20968006 C7.10195295,6.67798664 6.86883277,7.07290601 6.56813813,7.39428051 C6.26728761,7.71557619 5.91250222,7.96135635 5.5036261,8.13162099 Z" id="Path"></path>
                <path d="M13.6306695,7.66774771 C13.6306695,8.14753381 13.4162023,8.38709677 12.9873509,8.38709677 C12.5656484,8.38709677 12.3548387,8.14753381 12.3548387,7.66774771 L12.3548387,1.36442783 C12.3548387,1.16142236 12.4137756,0.990683204 12.5317326,0.852375412 C12.6496896,0.714315187 12.8015624,0.64516129 12.9873509,0.64516129 L15.5986144,0.64516129 C15.7643693,0.64516129 15.9103401,0.714315187 16.0366098,0.852375412 C16.1625469,0.990683204 16.2258065,1.16142236 16.2258065,1.36442783 C16.2258065,1.56768087 16.1625469,1.74048309 16.0366098,1.88266944 C15.9103401,2.02493831 15.7643693,2.09599023 15.5986144,2.09599023 L13.6306695,2.09599023 L13.6306695,3.47370419 L15.3824846,3.47370419 C15.5625374,3.47370419 15.7176521,3.54021736 15.8473299,3.67316119 C15.9771741,3.80618754 16.0419299,3.98559156 16.0419299,4.21112569 C16.0419299,4.40472359 15.9771741,4.57216184 15.8473299,4.71311036 C15.7176521,4.85414139 15.5625374,4.92453313 15.3824846,4.92453313 L13.6306695,4.92453313 L13.6306695,7.66774771 Z" id="Path"></path>
            </g>
            <path d="M10.3048989,0.803749073 C11.6790035,0.273025268 13.1151178,0.00266551866 14.5732693,0 C14.5737519,0 14.5743149,0 14.574717,0 C15.0761828,0 15.4831462,0.480650133 15.48387,1.07448961 C15.4845939,1.66890027 15.0782739,2.15135915 14.5760038,2.15231112 C13.3088678,2.15459585 12.061517,2.38925669 10.8688568,2.84982024 C10.7752392,2.88609033 10.6800934,2.90322581 10.586717,2.90322581 C10.2038014,2.90322581 9.84766826,2.61477861 9.72252299,2.16049807 C9.56673483,1.59550331 9.82748094,0.988050649 10.3048989,0.803749073 Z" id="Path"></path>
            <path d="M0,14.5750733 L0,14.5618079 C0,13.1087286 0.26717528,11.6771953 0.794260967,10.3067632 C0.977890202,9.82929065 1.58727926,9.56736011 2.15489529,9.72172065 C2.72270251,9.87624198 3.03413616,10.3886868 2.85050692,10.8662397 C2.39301108,12.0556199 2.16120426,13.2989458 2.16120426,14.5618079 L2.16120426,14.5750733 C2.16120426,15.0769862 1.67732545,15.483871 1.08064993,15.483871 C0.483783217,15.483871 0,15.0769862 0,14.5750733 Z" id="Path"></path>
            <path d="M4.44322677,23.0386429 C4.27221079,23.1649136 4.07378457,23.2258065 3.87714598,23.2258065 C3.58014509,23.2258065 3.28714508,23.0869432 3.09876361,22.8250868 C2.19141696,21.5639323 1.49041315,20.1749547 1.01533091,18.6965354 C0.850699294,18.1845525 1.1269297,17.6343608 1.63231641,17.4676386 C2.13753288,17.3006577 2.68062994,17.580713 2.84526156,18.092782 C3.25760673,19.3755853 3.86616486,20.5812807 4.6539961,21.676403 C4.96700047,22.1115366 4.87268205,22.7214137 4.44322677,23.0386429 Z" id="Path"></path>
            <path d="M4.6074466,7.35383179 C4.42314088,7.60732632 4.13576728,7.74193548 3.84439428,7.74193548 C3.65250637,7.74193548 3.45895204,7.68361594 3.29189375,7.56248432 C2.87087351,7.25732584 2.77738752,6.66922187 3.08292506,6.2489218 C3.96629268,5.03402829 5.03004993,3.96913499 6.24470124,3.08402563 C6.66488827,2.77786881 7.25421662,2.86988225 7.56075401,3.28926718 C7.86745805,3.70890169 7.77547183,4.29733844 7.35520148,4.60341207 C6.29960967,5.37263109 5.37499824,6.29800672 4.6074466,7.35383179 Z" id="Path"></path>
            <path d="M11.5652016,27.3977091 C11.4316687,27.8052781 11.0494319,28.0645161 10.638316,28.0645161 C10.5388344,28.0645161 10.4375425,28.0493421 10.3377161,28.0172889 C8.8594577,27.5436531 7.47007754,26.8436848 6.20810968,25.9369057 C5.77276999,25.6240469 5.67630561,25.0213462 5.99268118,24.5907604 C6.30905676,24.1602598 6.91853233,24.0648677 7.35387202,24.3776413 C8.44963495,25.1651589 9.6556552,25.772804 10.9385711,26.1838681 C11.4505478,26.3478846 11.7310617,26.8913382 11.5652016,27.3977091 Z" id="Path"></path>
            <path d="M19.6943268,28.2323964 C18.3198217,28.7623 16.8836361,29.0313998 15.4255767,29.0322581 C15.4254963,29.0322581 15.4253354,29.0322581 15.4251746,29.0322581 C14.9232856,29.0322581 14.5163704,28.5500334 14.5161291,27.9548098 C14.5158879,27.3594907 14.9226423,26.8765986 15.4247725,26.8763125 C16.6919195,26.875645 17.9392032,26.6420183 19.1322047,26.1822027 C19.6095662,25.9979714 20.1225528,26.3078844 20.27784,26.8740239 C20.4329664,27.4401635 20.1717687,28.0483558 19.6943268,28.2323964 Z" id="Path"></path>
            <path d="M26.9165744,22.7850171 C26.0324323,24.0000009 24.9682643,25.0643917 23.7535473,25.9486369 C23.5862614,26.0703434 23.392413,26.1290323 23.2002299,26.1290323 C22.9094573,26.1290323 22.6227647,25.9947555 22.4384921,25.7417692 C22.1324814,25.3216237 22.2250757,24.7330703 22.6453304,24.4271392 C23.7010883,23.65869 24.6258653,22.7337372 25.3942646,21.6779208 C25.7001088,21.2575256 26.2888152,21.1647056 26.7091532,21.4704703 C27.1295745,21.776235 27.2224186,22.3647884 26.9165744,22.7850171 Z" id="Path"></path>
            <path d="M30,14.4500851 L30,14.4827402 C30,15.9310916 29.7315544,17.3607944 29.201916,18.7291086 C29.0539035,19.111606 28.6308608,19.3548387 28.1761351,19.3548387 C28.0657222,19.3548387 27.9534961,19.3405121 27.8428924,19.3104181 C27.2761315,19.1561066 26.965792,18.64579 27.1497817,18.1704497 C27.6093743,16.9827791 27.8425106,15.7410835 27.8425106,14.4796988 L27.8425106,14.4560879 C27.8405066,13.9564162 28.3218573,13.5499878 28.917629,13.5483871 C28.9188696,13.5483871 28.9201102,13.5483871 28.9212553,13.5483871 C29.5154047,13.5483871 29.997996,13.9513739 30,14.4500851 Z" id="Path"></path>
            <path d="M28.3694162,11.5644108 C28.2701769,11.5972856 28.169492,11.6129032 28.0704228,11.6129032 C27.6658973,11.6129032 27.2895193,11.3518035 27.1569451,10.9403945 C26.7437457,9.65733001 26.1346189,8.45192242 25.3464021,7.35721904 C25.0332924,6.92234042 25.1268342,6.3120435 25.5555955,5.99425423 C25.9842718,5.67655124 26.5856602,5.77155151 26.89894,6.20651641 C27.80655,7.46714669 28.5082832,8.85591085 28.9844107,10.3342393 C29.1493843,10.8462571 28.8740314,11.3970171 28.3694162,11.5644108 Z" id="Path"></path>
        </g>
    </g>
</svg>